<svg width="44" height="44" xmlns="http://www.w3.org/2000/svg" fill="none">

 <g>
  <title>background</title>
  <rect fill="none" id="canvas_background" height="46" width="46" y="-1" x="-1"/>
 </g>
 <g>
  <title>Layer 1</title>
  <path id="svg_1" fill="white" d="m57.4029,15.4545l3.7926,0l4.0057,9.7728l0.1704,0l4.0057,-9.7728l3.7926,0l0,14.5455l-2.9829,0l0,-9.4673l-0.1208,0l-3.7642,9.3963l-2.0312,0l-3.7642,-9.4318l-0.1208,0l0,9.5028l-2.9829,0l0,-14.5455zm21.3547,14.7515c-0.696,0 -1.3163,-0.1208 -1.8608,-0.3622c-0.5445,-0.2463 -0.9753,-0.6085 -1.2926,-1.0867c-0.3125,-0.483 -0.4687,-1.0843 -0.4687,-1.804c0,-0.606 0.1112,-1.115 0.3338,-1.527c0.2225,-0.4119 0.5256,-0.7433 0.9091,-0.9943c0.3835,-0.2509 0.8191,-0.4403 1.3068,-0.5682c0.4924,-0.1278 1.0085,-0.2178 1.5483,-0.2698c0.6345,-0.0663 1.1458,-0.1279 1.5341,-0.1847c0.3882,-0.0616 0.67,-0.1515 0.8451,-0.2699c0.1752,-0.1184 0.2628,-0.2936 0.2628,-0.5256l0,-0.0426c0,-0.4498 -0.142,-0.7978 -0.4261,-1.044c-0.2794,-0.2462 -0.6771,-0.3693 -1.1932,-0.3693c-0.5445,0 -0.9777,0.1207 -1.2997,0.3622c-0.322,0.2367 -0.535,0.535 -0.6392,0.8949l-2.7983,-0.2273c0.142,-0.6629 0.4214,-1.2358 0.8381,-1.7187c0.4166,-0.4877 0.954,-0.8618 1.6122,-1.1222c0.6629,-0.2652 1.4299,-0.3977 2.3011,-0.3977c0.6061,0 1.1861,0.071 1.7401,0.213c0.5587,0.1421 1.0535,0.3622 1.4844,0.6605c0.4356,0.2983 0.7788,0.6819 1.0298,1.1506c0.2509,0.464 0.3764,1.0204 0.3764,1.669l0,7.358l-2.8693,0l0,-1.5128l-0.0852,0c-0.1752,0.3409 -0.4096,0.6416 -0.7032,0.902c-0.2935,0.2557 -0.6463,0.4569 -1.0582,0.6037c-0.4119,0.142 -0.8878,0.2131 -1.4276,0.2131zm0.8665,-2.0881c0.4451,0 0.8381,-0.0876 1.179,-0.2628c0.3409,-0.1799 0.6084,-0.4214 0.8025,-0.7244c0.1942,-0.303 0.2912,-0.6463 0.2912,-1.0298l0,-1.1577c-0.0947,0.0615 -0.2249,0.1184 -0.3906,0.1704c-0.161,0.0474 -0.3433,0.0924 -0.5469,0.135c-0.2036,0.0379 -0.4072,0.0734 -0.6108,0.1065c-0.2036,0.0284 -0.3882,0.0545 -0.5539,0.0781c-0.3551,0.0521 -0.6653,0.135 -0.9304,0.2486c-0.2652,0.1137 -0.4711,0.2675 -0.6179,0.4617c-0.1468,0.1894 -0.2202,0.4261 -0.2202,0.7102c0,0.4119 0.1491,0.7268 0.4474,0.9446c0.3031,0.2131 0.6866,0.3196 1.1506,0.3196zm7.6243,1.8821l0,-10.9091l3.0256,0l0,10.9091l-3.0256,0zm1.5199,-12.3153c-0.4498,0 -0.8357,-0.1492 -1.1577,-0.4475c-0.3172,-0.303 -0.4758,-0.6652 -0.4758,-1.0866c0,-0.4167 0.1586,-0.7742 0.4758,-1.0725c0.322,-0.303 0.7079,-0.4545 1.1577,-0.4545c0.4498,0 0.8333,0.1515 1.1506,0.4545c0.3219,0.2983 0.4829,0.6558 0.4829,1.0725c0,0.4214 -0.161,0.7836 -0.4829,1.0866c-0.3173,0.2983 -0.7008,0.4475 -1.1506,0.4475zm6.9549,-2.2302l0,14.5455l-3.0256,0l0,-14.5455l3.0256,0zm7.3388,18.8637c-0.981,0 -1.821,-0.135 -2.522,-0.4048c-0.6957,-0.2652 -1.2497,-0.6274 -1.6616,-1.0867c-0.412,-0.4593 -0.6795,-0.9754 -0.8026,-1.5483l2.7982,-0.3764c0.085,0.2178 0.22,0.4214 0.405,0.6108c0.185,0.1894 0.428,0.3409 0.731,0.4545c0.308,0.1184 0.682,0.1776 1.123,0.1776c0.658,0 1.2,-0.161 1.626,-0.483c0.431,-0.3172 0.646,-0.8499 0.646,-1.598l0,-1.9957l-0.127,0c-0.133,0.303 -0.332,0.5895 -0.597,0.8594c-0.265,0.2698 -0.606,0.49 -1.023,0.6605c-0.416,0.1704 -0.914,0.2557 -1.491,0.2557c-0.819,0 -1.565,-0.1894 -2.2375,-0.5682c-0.6676,-0.3836 -1.2003,-0.9683 -1.598,-1.7543c-0.393,-0.7907 -0.5895,-1.7898 -0.5895,-2.9972c0,-1.2357 0.2012,-2.2679 0.6037,-3.0965c0.4025,-0.8286 0.9375,-1.4489 1.6051,-1.8608c0.6722,-0.412 1.4082,-0.6179 2.2092,-0.6179c0.61,0 1.122,0.1041 1.534,0.3125c0.412,0.2036 0.743,0.4592 0.994,0.767c0.256,0.303 0.452,0.6013 0.59,0.8949l0.113,0l0,-1.8324l3.004,0l0,11.0156c0,0.9281 -0.227,1.7046 -0.681,2.3296c-0.455,0.625 -1.085,1.0937 -1.89,1.4062c-0.8,0.3173 -1.721,0.4759 -2.762,0.4759zm0.064,-6.7472c0.487,0 0.899,-0.1207 1.235,-0.3622c0.341,-0.2462 0.602,-0.5966 0.782,-1.0511c0.184,-0.4593 0.277,-1.0086 0.277,-1.6478c0,-0.6392 -0.09,-1.1931 -0.27,-1.6619c-0.18,-0.4735 -0.441,-0.8404 -0.782,-1.1008c-0.34,-0.2605 -0.755,-0.3907 -1.242,-0.3907c-0.498,0 -0.917,0.135 -1.258,0.4049c-0.34,0.2651 -0.599,0.6344 -0.774,1.1079c-0.175,0.4735 -0.263,1.0204 -0.263,1.6406c0,0.6298 0.088,1.1743 0.263,1.6336c0.18,0.4545 0.438,0.8073 0.774,1.0582c0.341,0.2462 0.76,0.3693 1.258,0.3693zm12.606,2.6421c-1.103,0 -2.057,-0.2344 -2.862,-0.7032c-0.8,-0.4734 -1.418,-1.1316 -1.854,-1.9744c-0.435,-0.8475 -0.653,-1.83 -0.653,-2.9474c0,-1.1269 0.218,-2.1118 0.653,-2.9546c0.436,-0.8475 1.054,-1.5057 1.854,-1.9744c0.805,-0.4735 1.759,-0.7102 2.862,-0.7102c1.103,0 2.055,0.2367 2.855,0.7102c0.805,0.4687 1.425,1.1269 1.861,1.9744c0.436,0.8428 0.653,1.8277 0.653,2.9546c0,1.1174 -0.217,2.0999 -0.653,2.9474c-0.436,0.8428 -1.056,1.501 -1.861,1.9744c-0.8,0.4688 -1.752,0.7032 -2.855,0.7032zm0.014,-2.3438c0.502,0 0.921,-0.142 1.257,-0.4261c0.337,-0.2888 0.59,-0.6818 0.76,-1.179c0.176,-0.4972 0.263,-1.063 0.263,-1.6974c0,-0.6345 -0.087,-1.2003 -0.263,-1.6975c-0.17,-0.4971 -0.423,-0.8901 -0.76,-1.179c-0.336,-0.2888 -0.755,-0.4332 -1.257,-0.4332c-0.506,0 -0.932,0.1444 -1.278,0.4332c-0.341,0.2889 -0.599,0.6819 -0.774,1.179c-0.171,0.4972 -0.256,1.063 -0.256,1.6975c0,0.6344 0.085,1.2002 0.256,1.6974c0.175,0.4972 0.433,0.8902 0.774,1.179c0.346,0.2841 0.772,0.4261 1.278,0.4261z"/>
  <path id="svg_2" fill="white" d="m0,22c13.9836,0 22,-8.0164 22,-22c0,13.9836 8.0164,22 22,22c-13.9836,0 -22,8.0164 -22,22c0,-13.9836 -8.0164,-22 -22,-22z" clip-rule="evenodd" fill-rule="evenodd"/>
 </g>
</svg>